# xmcd
#
# Track frame offsets:
#  182
#  14022
#  41735
#  59565
#
# Disc length: 981 seconds
#
# Revision: 0
# Processed by: cddbd v1.5.1PL2 Copyright (c) Steve Scherf et al.
# Submitted via: Collectorz.com_Music_Collector 6.11
#
DISCID=3503d304
DTITLE=Sid Owen - Good Thing Going
DYEAR=2000
DGENRE=Pop
TTITLE0=Good Thing Going (Radio Version)
TTITLE1=Good Thing Going (Razor And Rude Bway 12")
TTITLE2=Good Thing Going (Razor And Rude Bway Edit)
TTITLE3=Good Thing Going (Steppa Dub)
EXTD=
EXTT0=
EXTT1=
EXTT2=
EXTT3=
PLAYORDER=
